<?xml version="1.0" encoding="UTF-8"?>
<svg id="Layer_1" xmlns="http://www.w3.org/2000/svg" version="1.1" viewBox="0 0 457 69.5">
  <!-- Generator: Adobe Illustrator 30.1.0, SVG Export Plug-In . SVG Version: 2.1.1 Build 136)  -->
  <path d="M187.6,56.1c-6.4-2.1-7.5-9.4-6.1-15s2.8-5.4,5.7-6.4,5.6-1.6,8.6-1.6h8.4c0-3.2.6-8.5-3.5-8.9s-6,0-6.3,3.3l-.3,3.3h-11.5c-.8-6,1.2-12.7,7.5-14.9s10.1-1.8,15.3-1,3.7.7,5.4,1.5c3.5,1.6,5.8,4.7,6.4,8.5s.5,6.1.5,9.3v10.1c0,.6.3,1.6.7,2l3.1.2v8.6c-2.7,1.8-8,2-11.2,1s-2.7-1.5-3.7-2.7c-4.9,4.2-13.2,4.5-18.9,2.6ZM204.3,47.3v-7c-3.7.3-9.1-1.3-10,3s.2,3.9,1.9,4.7c2.6,1.2,5.5.7,8-.7Z"/>
  <g>
    <path d="M398,0v55.5c0,0-21.8,0-21.8,0-3.5,0-6.8-.6-10.1-1.6-4.1-1.4-7.3-4.5-8.4-8.7-1.4-4.9-1.7-10-.9-15.1s1.7-6.3,3.6-9c3.7-5,9.4-6.2,15.3-6.2h8.8s0-11.7,0-11.7l11.7-2.8c.2,0,.7-.3.8-.4h1ZM377.1,44.7c2.5.2,4.8.2,7.4,0v-19.7c-5.3.1-12.2-1.4-14,5.3s-.5,4.8-.4,7.2c.2,3.9,2.8,6.9,6.9,7.2Z"/>
    <path d="M417.1,50.2c-1-3.5-1-7,.2-10.3,2-5.6,9.3-6.7,14.5-6.8h7.8c.1-2.6.5-7.9-2.6-8.6s-3.1-.3-4.6,0c-2.7.5-2.8,4.1-2.7,6.4h-11.6c-1-6.1,1.1-13,7.7-15.1s8.8-1.6,13.3-1.1,4.7.7,6.9,1.7c4.9,2.2,6.9,6.7,6.9,11.9v15.6c0,.9.4,2.1,1.1,2.6h2.9c0,0,0,8.8,0,8.8-3.6,2.1-12.2,2.4-14.8-2-4.5,4.4-13.2,4.6-18.8,2.8s-5.1-2.9-6-6ZM439.6,47.3v-7.1c-2.3,0-4.4,0-6.4.1s-3.6,2-3.6,4.1,1,3.4,3.1,3.9,4.8.1,6.9-1.1Z"/>
  </g>
  <path d="M254.4,40.6c0,7.1,9.7,6.6,14.3,5.4l6.6-1.6v9.8c-6.6,2.4-13.7,3.2-20.7,2.3s-10-3.3-12.1-8.2-1.6-5.5-1.6-8.4v-9.1c0-2.3.4-4.6,1.1-6.8,1.1-3.6,3.7-6.2,7.2-7.6,6.1-2.4,12.9-2.5,19.1-.4s8.4,9.2,7.8,15.1l-12,2.9v-6c-.2-1.8-1.4-3.2-3.2-3.4s-3-.4-4.4.3-2.2,2.3-2.2,3.9v11.8Z"/>
  <path d="M307.1,55.4c-7.1-2.3-9.9-9.2-9.8-16v-8.9c.1-2.6.8-5.2,1.9-7.5,1.6-3.4,4.4-5.7,7.9-6.9s8.8-1.9,13.4-1.1,3.5.6,5.3,1.2c4.5,1.6,7.8,5.2,8.7,10.1s1.1,12.9,0,19.2c-.9,4.5-3.9,8-8,9.6-6.2,2.3-12.9,2.4-19.2.4ZM321.1,44.9c.5-1.3.7-2.7.7-4.1v-12c0-1.7-1-3.3-2.4-4-2.2-1-7.3-1.1-8.1,2.3s-.5,1.8-.5,2.6v12.5c0,1.1.4,2.4,1.1,3.2,2.4,2.7,8.1,2.3,9.2-.5Z"/>
  <g>
    <path d="M142.1,54.9h-9.3s0,11.3,0,11.3c-1.8.7-3.5,1.1-5.3,1.5l-8.1,1.8V14.1c7.4-.1,14.6-.2,21.9,0s7.1.6,10.4,1.8c4.2,1.6,7.2,4.8,8.3,9.1s1.7,12.5-.2,18.5-5.8,9.4-11.4,10.6-4,.7-6.2.7ZM146.1,41.5c1.9-4.4,2-9.3-.3-13.4s-9.1-2.9-13-3.1v19.8c4.6-.1,10.6,1.3,13.3-3.3Z"/>
    <path d="M94.2,15.8l.2,39.5c-3.8.4-7.4.4-11.1.1l-1.3-4.1c-1.5,1.5-2.5,2.8-4.2,3.6-4.4,2.1-9.3,2.5-13.9.9s-6.1-6-6.1-10.6V15.8s13.1,0,13.1,0v26.2c.4,1.6.7,3.3,2.2,4.1s3.9.7,5.6,0,2.4-2.1,2.6-3.9V15.8s13,0,13,0Z"/>
    <path d="M34.7,48.7c-1.8,6.1-8.2,7.6-13.8,7.9s-9.8,0-14.5-1.4S-.1,50.1.5,45.8l11.4-2.7.4,2.1c.8,3.7,6.4,3.5,9.1,2.5s1.2-1,1.4-1.9c.2-1.6-.5-3-2.2-3.5l-12.7-3.3C.8,37.1-.4,29.1,1.3,23s7.8-8,13.4-8.3,13.3-.1,17.2,4.1,2.7,4.9,2.6,7.9l-6.2,1.7-5.5,1.3-.2-2.5c-.1-1.6-1.2-2.8-2.8-3.2s-4.1-.5-5.9.6-1.4,1.7-1.3,2.7.4,2.2,1.5,2.6c5.2,1.7,10.7,2.5,15.4,4.5s6.7,9.1,5.1,14.5Z"/>
  </g>
</svg>